<svg xmlns="http://www.w3.org/2000/svg" version="1.1" xmlns:xlink="http://www.w3.org/1999/xlink" xmlns:svgjs="http://svgjs.dev/svgjs" width="100%" height="100%" viewBox="0 0 1000 600"><rect width="1000" height="600" x="0" y="0" fill="#df678c"/><g><circle r="166.66666666666666" cx="317.9259287516276" cy="340.14815501913495" fill="#3d155f" transform="matrix(0.8263956472729784,0,0,0.8263956472729784,0,18.903040672418626)"/><path d="M244.23910258568026 415.1481547560722L244.23910258568026 415.1481547560722Q240.56819148026668 415.1481547560722 240.56819148026668 411.50708845639366L240.56819148026668 411.50708845639366Q240.56819148026668 410.19391700405055 242.09027657275524 405.68735133805507L242.09027657275524 405.68735133805507Q246.3879285986053 392.3765679802138 256.80376580014473 373.0371338638884Q267.21960300168416 353.69769974756315 283.7536253789129 328.32961487275367L283.7536253789129 328.32961487275367Q278.38156034660034 328.32961487275367 278.38156034660034 324.89746221322065L278.38156034660034 324.89746221322065Q278.38156034660034 321.67422319383303 282.2613850921594 321.4653095536875L282.2613850921594 321.4653095536875L288.29003585064356 321.4653095536875Q294.4977554435381 312.4223334159614 299.0341659152687 305.97585537718624Q303.5407315812643 299.5293773384111 306.9728842407973 295.0228116724156L306.9728842407973 295.0228116724156Q311.2705362666474 289.232919359812 315.777101932643 283.5325614644137Q320.28366759863854 277.8322035690153 324.58131962448863 272.90781062272873L324.58131962448863 272.90781062272873Q323.74566506390664 272.90781062272873 322.88016569758963 272.997345039934Q322.0146663312726 273.1167242628742 321.35808060510107 273.1167242628742L321.35808060510107 273.1167242628742Q313.0015349992815 273.1167242628742 313.0015349992815 269.0279858771696L313.0015349992815 269.0279858771696Q313.0015349992815 265.14816113161055 319.65692667820207 265.14816113161055L319.65692667820207 265.14816113161055L391.64259811119086 265.14816113161055Q395.07475077072394 265.14816113161055 395.2836644108694 268.6101585968787L395.2836644108694 268.6101585968787Q395.2836644108694 272.4601385367027 391.8515117513363 272.4601385367027L391.8515117513363 272.4601385367027L334.0421230425058 272.4601385367027Q328.67005801019326 279.11553021562327 323.2084585606754 286.0992147576296Q317.71701430542254 293.082899299636 311.3899154895877 301.58866893413096Q305.0329718680178 310.0645937628908 296.8853399023437 321.4653095536875L296.8853399023437 321.4653095536875L349.7404908591526 321.4653095536875Q353.1726435186857 321.4653095536875 353.1726435186857 324.89746221322065L353.1726435186857 324.89746221322065Q353.1726435186857 328.32961487275367 349.7404908591526 328.5385285128992L349.7404908591526 328.5385285128992L292.14001579046754 328.5385285128992Q272.38275439385126 358.62209269384965 261.5192451062858 379.0359398166375Q250.68558062445538 399.44978693942534 247.67125524521333 412.5815014628561L247.67125524521333 412.5815014628561Q247.01466951904177 415.1481547560722 244.23910258568026 415.1481547560722Z " fill="#df678c" transform="matrix(0.8263956472729784,0,0,0.8263956472729784,0,18.903040672418626)"/><path d="M570.6548201255805 376.65533233452703L570.6548201255805 376.65533233452703Q567.9259338907865 376.65533233452703 567.9259338907865 373.94863216668256L567.9259338907865 373.94863216668256Q567.9259338907865 372.97244522090267 569.0574233052133 369.6223491115214L569.0574233052133 369.6223491115214Q572.2522169459477 359.72736325202465 579.9951543113388 345.3507918687198Q587.7380916767298 330.97422048541506 600.0291727667774 312.1160635783022L600.0291727667774 312.1160635783022Q596.0356807158594 312.1160635783022 596.0356807158594 309.5646658791046L596.0356807158594 309.5646658791046Q596.0356807158594 307.1685706485538 598.9198694193002 307.0132681799071L598.9198694193002 307.0132681799071L603.4014549431081 307.0132681799071Q608.0161568686134 300.29088989419506 611.3884390449441 295.49869943309346Q614.7385351543253 290.70650897199187 617.2899328535229 287.3564128626107L617.2899328535229 287.3564128626107Q620.4847264942573 283.052315874399 623.8348226036386 278.8147770870361Q627.1849187130198 274.577238299673 630.3797123537541 270.9165372529982L630.3797123537541 270.9165372529982Q629.7585024791669 270.9165372529982 629.1151065376301 270.9830954538469Q628.4717105960933 271.071839721645 627.9836171232033 271.071839721645L627.9836171232033 271.071839721645Q621.7715183773308 271.071839721645 621.7715183773308 268.03234854955747L621.7715183773308 268.03234854955747Q621.7715183773308 265.14815984611664 626.7190113070793 265.14815984611664L626.7190113070793 265.14815984611664L680.2318047893805 265.14815984611664Q682.7832024885781 265.14815984611664 682.938504957225 267.7217436122638L682.938504957225 267.7217436122638Q682.938504957225 270.58374624875506 680.3871072580273 270.58374624875506L680.3871072580273 270.58374624875506L637.4126955767598 270.58374624875506Q633.4192035258417 275.5312391785035 629.3591532740751 280.7227788446969Q625.276916955359 285.9143185108902 620.5734707620555 292.23734759151046Q615.8478385018026 298.53819060518106 609.7910422245769 307.0132681799071L609.7910422245769 307.0132681799071L649.0825667922201 307.0132681799071Q651.6339644914177 307.0132681799071 651.6339644914177 309.5646658791046L651.6339644914177 309.5646658791046Q651.6339644914177 312.1160635783022 649.0825667922201 312.271366046949L649.0825667922201 312.271366046949L606.2634575795993 312.271366046949Q591.5762812590009 334.6349215320899 583.5005528893668 349.8101913255783Q575.447010586682 364.98546111906666 573.2062178247782 374.7473305768662L573.2062178247782 374.7473305768662Q572.7181243518882 376.65533233452703 570.6548201255805 376.65533233452703ZM659.3103436559601 370.2657450530582L659.3103436559601 370.2657450530582Q646.3536805574262 370.2657450530582 646.3536805574262 355.73387120110664L646.3536805574262 355.73387120110664Q646.3536805574262 349.0114929153946 649.5484741981605 341.66790475509544Q652.7432678388949 334.32431659479624 658.0235517728864 328.02347358112564Q663.3038357068781 321.7004445005054 669.7599811891955 317.7069524495874Q676.2383127384625 313.7134603986694 682.938504957225 313.7134603986694L682.938504957225 313.7134603986694Q688.8621848327533 313.7134603986694 691.5688850005977 318.1950459224774Q694.2755851684421 322.65444537933587 694.2755851684421 328.09003178197423L694.2755851684421 328.09003178197423Q694.2755851684421 335.2783174736266 691.4135825319509 342.710649901724Q688.5293938285101 350.14298232982145 683.5819008987617 356.37726714264335Q678.6344079690133 362.58936588851583 672.4001231561913 366.427555470787Q666.1658383433693 370.2657450530582 659.3103436559601 370.2657450530582ZM659.1328551203637 365.162949654663L659.1328551203637 365.162949654663Q660.1090420661437 365.162949654663 660.2643445347904 364.98546111906666L660.2643445347904 364.98546111906666Q666.4986293476125 364.186762708883 671.7567272146546 360.5260616622082Q677.0370111486461 356.8431745485838 680.9417589317659 351.34102994509675Q684.8686927818353 345.81669927466027 686.931997008143 339.42711199319143Q689.0174873014001 333.0375247117226 689.0174873014001 326.82542596585023L689.0174873014001 326.82542596585023Q689.0174873014001 323.14253885222587 686.931997008143 321.0570485589687Q684.8686927818353 318.99374433266104 681.6738991411008 318.99374433266104L681.6738991411008 318.99374433266104Q677.0370111486461 318.99374433266104 671.8454714824527 322.8319339149322Q666.6539318162593 326.6479374302539 662.1057880916027 332.57161730578224Q657.5354582999965 338.4731111143611 654.6734556635053 344.95144266362803Q651.7892669600645 351.40758814594545 651.7892669600645 356.53256961129017L651.7892669600645 356.53256961129017Q651.7892669600645 365.162949654663 659.1328551203637 365.162949654663ZM712.4903461340181 370.2657450530582L712.4903461340181 370.2657450530582Q699.5558691024337 370.2657450530582 699.5558691024337 355.73387120110664L699.5558691024337 355.73387120110664Q699.5558691024337 349.0114929153946 702.7506627431682 341.66790475509544Q705.9454563839025 334.32431659479624 711.2257403178941 328.02347358112564Q716.4838381849361 321.7004445005054 722.962169734203 317.7069524495874Q729.4183152165205 313.7134603986694 736.1406935022325 313.7134603986694L736.1406935022325 313.7134603986694Q742.0421873108113 313.7134603986694 744.7710735456052 318.1950459224774Q747.4777737134497 322.65444537933587 747.4777737134497 328.09003178197423L747.4777737134497 328.09003178197423Q747.4777737134497 335.2783174736266 744.593585010009 342.710649901724Q741.7315823735177 350.14298232982145 736.7840894437693 356.37726714264335Q731.8144104470713 362.58936588851583 725.6023117011988 366.427555470787Q719.3680268883769 370.2657450530582 712.4903461340181 370.2657450530582ZM712.3350436653712 365.162949654663L712.3350436653712 365.162949654663Q713.2890445442017 365.162949654663 713.4443470128485 364.98546111906666L713.4443470128485 364.98546111906666Q719.6786318256705 364.186762708883 724.9589157596621 360.5260616622082Q730.2170136267041 356.8431745485838 734.1439474767734 351.34102994509675Q738.0486952598933 345.81669927466027 740.1341855531505 339.42711199319143Q742.1974897794581 333.0375247117226 742.1974897794581 326.82542596585023L742.1974897794581 326.82542596585023Q742.1974897794581 323.14253885222587 740.1341855531505 321.0570485589687Q738.0486952598933 318.99374433266104 734.8539016191589 318.99374433266104L734.8539016191589 318.99374433266104Q730.2170136267041 318.99374433266104 725.0254739605107 322.8319339149322Q719.8339342943174 326.6479374302539 715.2857905696607 332.57161730578224Q710.7376468450041 338.4731111143611 707.8534581415634 344.95144266362803Q704.991455505072 351.40758814594545 704.991455505072 356.53256961129017L704.991455505072 356.53256961129017Q704.991455505072 365.162949654663 712.3350436653712 365.162949654663ZM804.340663305132 385.28571237789976L804.340663305132 385.28571237789976Q803.076057489008 385.28571237789976 801.2346139321959 384.08766476262434Q799.3931703753836 382.88961714734904 798.4391694965533 381.7581277329222L798.4391694965533 381.7581277329222Q796.5089816719429 379.3620325023714 795.8877717973556 376.0119363929902Q795.2443758558188 372.661840283609 795.2443758558188 368.668348232691L795.2443758558188 368.668348232691Q795.2443758558188 365.31825212330983 795.4884225922639 361.3913182732404Q795.7102832617593 357.48657049012064 796.3536792032961 353.00498496631263L796.3536792032961 353.00498496631263Q792.2048846837313 357.7971754274142 787.0133450175379 362.3675052190204Q781.8218053513444 366.915648943677 776.4749632165043 369.7776515801682Q771.1281210816641 372.661840283609 766.3359306205624 372.661840283609L766.3359306205624 372.661840283609Q754.3554544678085 372.661840283609 754.3554544678085 359.88266572067135L754.3554544678085 359.88266572067135Q754.3554544678085 346.6153976848438 763.6070443857685 334.32431659479624L763.6070443857685 334.32431659479624Q768.2439323782232 328.24533425062106 774.1454261868021 322.65444537933587Q780.0691060623304 317.0635565080507 786.6139958124461 313.5581579300227Q793.1588855625617 310.0527593519946 799.5484728440305 310.0527593519946L799.5484728440305 310.0527593519946Q804.340663305132 310.0527593519946 808.0235504187565 313.7134603986694L808.0235504187565 313.7134603986694Q808.33415535605 313.0700644571327 808.8888070297887 311.65015617236185Q809.4656447704768 310.20806182064143 810.574948117954 307.96726905873743L810.574948117954 307.96726905873743Q814.4131377002252 299.66968001960777 819.05002569268 290.6399507711432Q823.6647276181853 281.61022152267867 827.3476147318096 275.70872771409984L827.3476147318096 275.70872771409984Q831.4964092513745 269.14165189703465 835.1792963649988 269.14165189703465L835.1792963649988 269.14165189703465Q837.7306940641964 269.14165189703465 837.7306940641964 273.13514394795266L837.7306940641964 273.13514394795266Q837.7306940641964 280.01282470231143 824.796217032612 305.26056889089307L824.796217032612 305.26056889089307Q823.9975186224284 306.6804771756639 822.0007725969695 310.4521085570864Q820.0040265715105 314.2015538715594 817.3638846045146 319.0603025335096Q814.7237426375189 323.9412372624094 812.0170424696745 328.73342772351106Q809.2881562348805 333.5256181846126 807.1361077407747 337.27506349908566Q804.9840592466688 341.0245088135586 804.0300583678385 342.46660316527897L804.0300583678385 342.46660316527897Q802.2773590788245 349.65488885693145 801.3011721330445 356.1332204061984Q800.347171254214 362.58936588851583 800.347171254214 369.46704664287455L800.347171254214 369.46704664287455Q800.347171254214 372.0184443420722 800.5912179906591 374.17049283617797Q800.8352647271041 376.3447273972334 801.7892656059345 377.6093332133574L801.7892656059345 377.6093332133574Q802.587964016118 378.56333409218786 803.5419648949485 379.140171832876Q804.495965773779 379.69482350661457 805.7827576568525 380.16073091255504L805.7827576568525 380.16073091255504Q807.6907594145133 380.64882438544504 807.6907594145133 382.40152367445904L807.6907594145133 382.40152367445904Q807.6907594145133 385.28571237789976 804.340663305132 385.28571237789976ZM811.8617400010277 318.50565085977104L811.8617400010277 318.50565085977104Q817.9185362782533 308.12257152738425 822.555424270708 299.09284227891965Q827.1923122631629 290.0852990974046 830.0543148996541 282.0983149955686L830.0543148996541 282.0983149955686Q823.6647276181853 290.3959040346982 819.3606306299737 299.66968001960777Q815.056533641762 308.9212699375678 811.8617400010277 318.50565085977104ZM765.2044412061357 367.86964982250737L765.2044412061357 367.86964982250737Q769.8413291985904 367.86964982250737 775.0328688647838 364.76360044957113Q780.2244085309773 361.6353650096855 784.8612965234321 357.3312680214738L784.8612965234321 357.3312680214738Q789.0100910429968 353.49307843920263 792.5154896210248 349.4108421204864Q796.0430742660025 345.3507918687198 799.08256543809 341.0245088135586L799.08256543809 341.0245088135586Q800.347171254214 335.4336199422734 802.0333123423794 330.0202196065846Q803.6972673635953 324.5846332039462 805.7827576568525 319.14904680130786L805.7827576568525 319.14904680130786Q803.2313599576548 315.15555475038985 798.5944719652001 315.15555475038985L798.5944719652001 315.15555475038985Q793.8022815040985 315.15555475038985 787.9673458963683 318.749697596216Q782.1324102886381 322.3438404420422 776.785568153798 327.62412437603376Q771.4387260189577 332.8822222430758 767.6005364366865 337.6744127041774L767.6005364366865 337.6744127041774Q759.6135523348505 348.39028304080733 759.6135523348505 360.37075919356136L759.6135523348505 360.37075919356136Q759.6135523348505 367.86964982250737 765.2044412061357 367.86964982250737ZM832.4504101302049 370.2657450530582L832.4504101302049 370.2657450530582Q819.5159330986205 370.2657450530582 819.5159330986205 355.73387120110664L819.5159330986205 355.73387120110664Q819.5159330986205 349.0114929153946 822.7107267393549 341.66790475509544Q825.9055203800893 334.32431659479624 831.1858043140809 328.02347358112564Q836.4439021811229 321.7004445005054 842.9222337303898 317.7069524495874Q849.4005652796569 313.7134603986694 856.1007574984193 313.7134603986694L856.1007574984193 313.7134603986694Q862.0022513069981 313.7134603986694 864.731137541792 318.1950459224774Q867.4378377096365 322.65444537933587 867.4378377096365 328.09003178197423L867.4378377096365 328.09003178197423Q867.4378377096365 335.2783174736266 864.5758350731452 342.710649901724Q861.6916463697045 350.14298232982145 856.744153439956 356.37726714264335Q851.7966605102075 362.58936588851583 845.5623756973856 366.427555470787Q839.3280908845637 370.2657450530582 832.4504101302049 370.2657450530582ZM832.2951076615581 365.162949654663L832.2951076615581 365.162949654663Q833.2491085403884 365.162949654663 833.4265970759849 364.98546111906666L833.4265970759849 364.98546111906666Q839.6386958218573 364.186762708883 844.9189797558489 360.5260616622082Q850.1992636898404 356.8431745485838 854.1040114729602 351.34102994509675Q858.00875925608 345.81669927466027 860.0942495493372 339.42711199319143Q862.1797398425944 333.0375247117226 862.1797398425944 326.82542596585023L862.1797398425944 326.82542596585023Q862.1797398425944 323.14253885222587 860.0942495493372 321.0570485589687Q858.00875925608 318.99374433266104 854.8139656153456 318.99374433266104L854.8139656153456 318.99374433266104Q850.1992636898404 318.99374433266104 845.007724023647 322.8319339149322Q839.8161843574536 326.6479374302539 835.2458545658475 332.57161730578224Q830.6977108411908 338.4731111143611 827.8357082046997 344.95144266362803Q824.9515195012588 351.40758814594545 824.9515195012588 356.53256961129017L824.9515195012588 356.53256961129017Q824.9515195012588 365.162949654663 832.2951076615581 365.162949654663ZM864.2430440689021 415.14815849198663L864.2430440689021 415.14815849198663Q856.744153439956 415.14815849198663 856.744153439956 404.45447422230615L856.744153439956 404.45447422230615Q856.744153439956 390.38850777629506 869.0352345300037 359.72736325202465L869.0352345300037 359.72736325202465Q871.1207248232607 354.6023817866798 873.982727459752 349.0114929153946Q876.8669161631927 343.42060404410944 880.705105745464 337.20850529823696L880.705105745464 337.20850529823696Q884.6985977963819 330.48612701252506 888.2927406422083 325.5386340827766Q891.8868834880344 320.5911411530282 894.5935836558788 317.5516499809407L894.5935836558788 317.5516499809407Q895.5475845347092 316.5976491021102 896.2797247440443 316.26485809786703Q896.9896788864297 315.9542531605734 897.4777723593196 315.9542531605734L897.4777723593196 315.9542531605734Q901.6265668788844 315.9542531605734 906.906850812876 318.3503483911242Q912.164948679918 320.74644362167504 916.3137431994828 324.4293307352994L916.3137431994828 324.4293307352994Q920.151932781754 327.62412437603376 922.5480280123048 332.08352383289224Q924.9441232428557 336.56510935670025 924.9441232428557 341.3572998178018L924.9441232428557 341.3572998178018Q924.9441232428557 344.8626983958298 923.5907731589334 348.45684124165604Q922.2374230750112 352.0509840874823 919.9966303131072 355.5785687324598L919.9966303131072 355.5785687324598Q924.1454248326721 354.77987032227617 930.135662909049 351.89568161883545Q936.125900985426 349.0114929153946 942.3601857982479 343.1099991068158L942.3601857982479 343.1099991068158Q943.0035817397849 342.46660316527897 944.112885087262 342.46660316527897L944.112885087262 342.46660316527897Q946.5089803178129 342.46660316527897 946.5089803178129 344.39679098988944L946.5089803178129 344.39679098988944Q946.5089803178129 345.195489400073 945.7990261754275 346.3935370153484Q945.0668859660924 347.5915846306238 943.3141866770784 349.3442839196378L943.3141866770784 349.3442839196378Q931.4890129929712 360.193270657965 914.893834914712 361.7906674783322L914.893834914712 361.7906674783322Q912.4977396841612 364.36425124447936 909.7022952485186 366.67160220723207Q906.906850812876 368.97895316998466 903.8673596407883 370.909140994595L903.8673596407883 370.909140994595Q894.5935836558788 376.5000298658802 888.0486939057632 376.5000298658802L888.0486939057632 376.5000298658802Q885.3419937379189 376.5000298658802 883.5671083819552 374.7473305768662Q881.8144090929412 372.97244522090267 881.8144090929412 370.7538385259482L881.8144090929412 370.7538385259482Q881.8144090929412 363.3880642986995 894.5935836558788 359.5720607833778L894.5935836558788 359.5720607833778Q899.2304716483336 358.2852689003042 903.8673596407883 357.3312680214738Q908.5042476332432 356.37726714264335 912.9636470901016 355.24577772821664L912.9636470901016 355.24577772821664Q916.1584407308361 350.29828479846816 917.6892793503546 346.6153976848438Q919.1979319029236 342.95469663816897 919.1979319029236 340.40329893897143L919.1979319029236 340.40329893897143Q919.1979319029236 331.9282213642454 906.5740598086328 324.25184219970305L906.5740598086328 324.25184219970305Q901.6265668788844 321.23453709456504 898.7423781754436 321.38983956321186L898.7423781754436 321.38983956321186Q885.6525986752124 335.7664109465166 873.982727459752 361.6353650096855L873.982727459752 361.6353650096855Q861.8469488383513 388.3252035499874 861.8469488383513 403.6557758121226L861.8469488383513 403.6557758121226Q861.8469488383513 407.31647685879744 862.490344779888 408.603268741871Q863.1337407214248 409.8900606249445 864.731137541792 409.8900606249445L864.731137541792 409.8900606249445Q865.1970449477325 409.8900606249445 865.5298359519755 409.8013163571464Q865.8404408892693 409.71257208934816 866.1732318935125 409.71257208934816L866.1732318935125 409.71257208934816Q868.23653611982 409.71257208934816 868.23653611982 412.28615585549534L868.23653611982 412.28615585549534Q868.23653611982 415.14815849198663 864.2430440689021 415.14815849198663ZM889.1579972532405 371.3750484005354L889.1579972532405 371.3750484005354Q895.0816771287688 371.3750484005354 906.2634548713393 362.12345848257536L906.2634548713393 362.12345848257536Q903.7120571721415 362.434063419869 901.3825201424394 362.922156892759Q899.0751691796868 363.3880642986995 894.7488861245257 364.674856181773L894.7488861245257 364.674856181773Q887.5606004328732 366.7603464750302 887.5606004328732 369.95514011576455L887.5606004328732 369.95514011576455Q887.5606004328732 371.3750484005354 889.1579972532405 371.3750484005354ZM972.067329443688 308.12257152738425L972.067329443688 308.12257152738425Q969.3606292758436 308.12257152738425 969.3606292758436 305.4158713595398L969.3606292758436 305.4158713595398Q969.3606292758436 304.61717294935625 970.4699326233209 302.46512445525036Q971.6014220377475 300.29088989419506 973.0213303225185 298.0722831992406Q974.4634246742388 295.83149043733664 975.2621230844223 295.03279202715305L975.2621230844223 295.03279202715305Q977.9910093192163 291.9933008550654 979.4996618717854 291.19460244488187Q981.0083144243544 290.3959040346982 982.295106307428 290.3959040346982L982.295106307428 290.3959040346982Q985.6452024168092 290.3959040346982 985.6452024168092 293.4353952067858L985.6452024168092 293.4353952067858Q985.6452024168092 294.54469855426305 984.2918523328871 296.07553717378164Q982.9385022489647 297.5841897263507 981.1858029599508 298.87098160942423L981.1858029599508 298.87098160942423Q978.6122191938035 300.4683784297914 977.9910093192163 301.42237930862177L977.9910093192163 301.42237930862177L974.4634246742388 306.36987223837025Q974.308122205592 307.0132681799071 973.7534705318534 307.56791985364566Q973.1988188581148 308.12257152738425 972.067329443688 308.12257152738425ZM944.9115834974456 372.81714275225585L944.9115834974456 372.81714275225585Q940.4521840405872 372.81714275225585 938.4554380151282 371.06444346324184Q936.4586919896691 369.31174417422784 936.4586919896691 365.7841595292502L936.4586919896691 365.7841595292502Q936.4586919896691 362.434063419869 938.5219962159769 356.5991278121389Q940.607486509234 350.78637827135816 943.868838350817 344.06399998564626Q947.1523762593496 337.3638077668838 950.835263372974 331.2848254227086Q954.4959644196488 325.22802914548305 957.9348047968282 321.30109529541363Q961.3736451740076 317.39634751229386 963.4369494003153 317.39634751229386L963.4369494003153 317.39634751229386Q966.321138103756 317.39634751229386 966.321138103756 319.9477452114914L966.321138103756 319.9477452114914Q966.321138103756 321.5451420318586 963.6144379359116 326.0267275556666Q960.8855517011176 330.48612701252506 957.6907580603832 335.2783174736266L957.6907580603832 335.2783174736266Q956.4261522442592 337.0310167626406 954.1853594823552 340.07050793472825Q951.9445667204512 343.1099991068158 949.859076427194 345.75014107381156Q947.7957722008864 348.39028304080733 947.1523762593496 349.3442839196378L947.1523762593496 349.3442839196378Q945.5549794389825 351.74037915018863 943.8022801499684 357.175965552827L943.8022801499684 357.175965552827Q941.872092325358 362.58936588851583 941.872092325358 365.47355459195654L941.872092325358 365.47355459195654Q941.872092325358 366.7603464750302 942.4489300660462 367.3815563496175Q943.0035817397849 368.0249522911542 945.0668859660924 368.0249522911542L945.0668859660924 368.0249522911542Q949.0603780170104 368.0249522911542 954.0300570137084 365.47355459195654Q958.9775499434568 362.922156892759 964.080345341852 358.9952230426896Q969.2053268071968 355.0904752595698 973.7534705318534 350.941680740005Q978.30161425651 346.79288622044015 981.4964078972445 343.7533950483526L981.4964078972445 343.7533950483526Q982.1398038387812 343.1099991068158 983.4044096549052 343.1099991068158L983.4044096549052 343.1099991068158Q985.800504885456 343.1099991068158 985.800504885456 345.0180008644766L985.800504885456 345.0180008644766Q985.800504885456 346.79288622044015 983.5818981905016 349.0114929153946L983.5818981905016 349.0114929153946Q979.2556151353405 353.3377759705558 975.5949140886656 356.687872079937Q971.9120269750412 360.0379681893182 968.56193086566 362.58936588851583L968.56193086566 362.58936588851583Q963.2816469316684 366.427555470787 956.8920596501996 369.6223491115214Q950.5024723687308 372.81714275225585 944.9115834974456 372.81714275225585ZM983.5818981905016 372.661840283609L983.5818981905016 372.661840283609Q974.308122205592 372.661840283609 974.308122205592 363.87615777158936L974.308122205592 363.87615777158936Q974.308122205592 358.12996643165735 977.1035666412346 351.4963324137436Q979.8990110768772 344.8626983958298 984.6912015379788 338.5618553821592Q989.4833919990805 332.23882630153906 995.3848858076591 327.04728663534564Q1001.3085656831876 321.8557469691522 1007.5428504960096 318.749697596216Q1013.754949241882 315.64364822327985 1019.5233266487636 315.64364822327985L1019.5233266487636 315.64364822327985Q1029.728917445554 315.64364822327985 1029.728917445554 325.6939365514234L1029.728917445554 325.6939365514234Q1029.728917445554 332.23882630153906 1026.5341238048195 332.23882630153906L1026.5341238048195 332.23882630153906Q1023.6721211683283 332.23882630153906 1023.6721211683283 329.5321261336946L1023.6721211683283 329.5321261336946Q1023.6721211683283 328.4228227862174 1024.226772842067 327.224775170942Q1024.7814245158056 326.0267275556666 1024.7814245158056 324.5846332039462L1024.7814245158056 324.5846332039462Q1024.7814245158056 320.1030476801382 1018.72462823858 320.1030476801382L1018.72462823858 320.1030476801382Q1008.9627587807804 320.1030476801382 994.2755824601819 334.96771253633295L994.2755824601819 334.96771253633295Q990.7701838821539 338.6284135830078 987.3979017058233 343.5980925797058Q984.047805596442 348.54558550945416 981.8957571023362 353.58182270700075Q979.7437086082303 358.5958738375978 979.7437086082303 363.07745936140583L979.7437086082303 363.07745936140583Q979.7437086082303 367.3815563496175 984.535899069332 367.3815563496175L984.535899069332 367.3815563496175Q988.6846935888967 367.3815563496175 993.3881397822001 364.83015865041983Q998.1137720424532 362.2787609512222 1001.6191706204812 359.5720607833778L1001.6191706204812 359.5720607833778Q1008.6521538434869 354.29177684938617 1015.995742003786 345.195489400073L1015.995742003786 345.195489400073Q1017.1272314182128 343.90869751699944 1018.8799307072268 341.82320722374226Q1020.6326299962408 339.7599029974346 1022.8734227581448 337.20850529823696L1022.8734227581448 337.20850529823696Q1023.6721211683283 336.4098068880534 1024.7814245158056 336.4098068880534L1024.7814245158056 336.4098068880534Q1027.332822215003 336.4098068880534 1027.332822215003 338.96120458725096L1027.332822215003 338.96120458725096L1021.2760259377775 348.05749203656427Q1015.1970435936024 356.99847701723064 1015.1970435936024 362.7668544241122L1015.1970435936024 362.7668544241122Q1015.1970435936024 366.915648943677 1019.1905356445203 366.915648943677L1019.1905356445203 366.915648943677Q1022.5406317539016 366.915648943677 1026.5341238048195 365.162949654663Q1030.5276158557376 363.3880642986995 1033.1011996218845 361.6353650096855L1033.1011996218845 361.6353650096855Q1038.2039950202798 358.2852689003042 1043.794883891565 353.2490317027576Q1049.3857727628501 348.212794505211 1054.4885681612454 343.1099991068158L1054.4885681612454 343.1099991068158Q1055.1319641027821 342.46660316527897 1056.418755985856 342.46660316527897L1056.418755985856 342.46660316527897Q1058.8148512164066 342.46660316527897 1058.8148512164066 344.39679098988944L1058.8148512164066 344.39679098988944Q1058.8148512164066 346.14949027890344 1056.5740584545028 348.39028304080733L1056.5740584545028 348.39028304080733Q1050.1844711730341 354.77987032227617 1045.0816757746388 359.32801404693276Q1039.956694309294 363.87615777158936 1035.3198063168393 366.7603464750302L1035.3198063168393 366.7603464750302Q1032.302501211701 368.5130457640442 1027.8209156878934 370.421047521705Q1023.3393301640851 372.3512353463154 1017.5931388241532 372.3512353463154L1017.5931388241532 372.3512353463154Q1009.761457190964 372.3512353463154 1009.761457190964 364.0314602402362L1009.761457190964 364.0314602402362Q1009.761457190964 360.8366665995018 1010.5601556011476 358.7733623731942L1010.5601556011476 358.7733623731942Q996.028281749196 372.661840283609 983.5818981905016 372.661840283609Z " fill="#3d155f" transform="matrix(0.8263956472729784,0,0,0.8263956472729784,0,18.903040672418626)"/></g></svg>